<?xml version="1.0" encoding="UTF-8"?>
<svg id="Layer_1" xmlns="http://www.w3.org/2000/svg" version="1.1" viewBox="0 0 438.1 379.4">
  <!-- Generator: Adobe Illustrator 29.0.1, SVG Export Plug-In . SVG Version: 2.1.0 Build 192)  -->
  <defs>
    <style>
      .st0 {
        fill: #fff;
      }

      .st1 {
        fill: #fd5202;
      }
    </style>
  </defs>
  <g>
    <path class="st0" d="M1064.8-461.1h32.9l-40.7-70.5h-11.6,0v8.5c0,3.8-1.7,7.4-4.7,9.8l-7.8,6.2-7.8-6.2c-3-2.4-4.7-6-4.7-9.8v-8.4h0c0,0,2-3.6,2-3.6l10.5-18.1,7.1,12.3h11.6l-18.7-32.3-22,38.2-2,3.5-21.2,36.7h11.6l12.2-21.2c1.3,4.1,3.9,7.8,7.4,10.6l6,4.8-6,4.8c-5.4,4.3-8.5,10.7-8.5,17.6v7.1h-24.8l8.3-14.4h-11.6l-14.1,24.4h87.3v-17.2c0-6.9-3.1-13.3-8.5-17.6l-6-4.8,6-4.8c3.5-2.8,6-6.5,7.4-10.6l26,45h-15.5v10ZM1040.7-488.1c3,2.4,4.7,6,4.7,9.8v7.1h-25v-7.1c0-3.8,1.7-7.4,4.7-9.8l7.8-6.2,7.8,6.2Z"/>
    <path class="st0" d="M1110.7-483.3v-66.2h23.3c6.8,0,12.9,1.5,18.3,4.4,5.4,2.9,9.6,6.9,12.6,12,3,5,4.5,10.6,4.5,16.7s-1.5,11.7-4.5,16.7c-3,5-7.2,9-12.6,12-5.4,2.9-11.5,4.4-18.3,4.4h-23.3ZM1134.1-494.9c4.6,0,8.6-.9,12.1-2.7,3.4-1.8,6.1-4.3,7.9-7.6,1.8-3.2,2.7-6.9,2.7-11.2s-.9-7.9-2.7-11.2c-1.8-3.2-4.5-5.7-7.9-7.6-3.4-1.8-7.5-2.7-12.1-2.7h-11v42.9h11Z"/>
    <path class="st0" d="M1198.9-483.3c-4.7,0-8.9-1.1-12.8-3.3-3.9-2.2-6.9-5.2-9.2-9.1-2.2-3.8-3.4-8.1-3.4-12.8s1.1-8.9,3.4-12.8c2.2-3.9,5.3-6.9,9.2-9.1,3.9-2.2,8.1-3.3,12.8-3.3s9.1,1.1,12.9,3.3c3.8,2.2,6.8,5.2,9,9.1,2.1,3.8,3.2,8.1,3.2,12.7v2.8h-38.7c.3,2.3,1.1,4.4,2.4,6.3,1.3,1.9,2.9,3.4,4.9,4.5,2,1.1,4,1.7,6.2,1.7s5.7-.6,7.8-1.9c2.1-1.3,3.6-2.8,4.6-4.6h12.1c-1.5,4.6-4.3,8.5-8.5,11.7-4.1,3.2-9.5,4.8-16,4.8ZM1211.8-513.3c-.3-1.9-1.1-3.6-2.2-5.2-1.2-1.5-2.7-2.8-4.5-3.7-1.8-.9-3.9-1.4-6.1-1.4s-4.2.5-6.1,1.4c-1.9.9-3.4,2.2-4.5,3.7-1.2,1.5-2,3.3-2.5,5.2h26Z"/>
    <path class="st0" d="M1230.5-483.3v-66.2h11.4v56.1h10.9v10h-22.3Z"/>
    <path class="st0" d="M1259.2-483.3v-37.9h-6.1v-10h6.1v-10.4h11.5v10.4h14.1v10h-14.1v27.9h14.6v10h-26.1Z"/>
    <path class="st0" d="M1311-483.3c-4.1,0-7.8-1.1-11.2-3.2-3.4-2.1-6.1-5.1-8.1-8.9-2-3.8-3-8.2-3-13s1-9.3,3-13.1c2-3.8,4.7-6.8,8.1-8.9,3.4-2.1,7.2-3.2,11.2-3.2s5.1.4,7.2,1.3c2.1.9,3.9,1.9,5.3,3.2,1.4,1.2,2.4,2.3,3.1,3.4h.4v-6.6h11.5v47.9h-11.5v-6.6h-.4c-.6,1-1.7,2.1-3.1,3.4-1.4,1.2-3.2,2.3-5.3,3.2-2.1.9-4.5,1.3-7.2,1.3ZM1313.6-493.3c2.6,0,4.9-.6,6.9-1.8,2-1.2,3.6-3,4.8-5.3,1.2-2.3,1.7-5,1.7-8s-.6-5.8-1.7-8.1c-1.2-2.3-2.8-4.1-4.8-5.3-2-1.2-4.3-1.8-6.9-1.8s-4.7.6-6.7,1.8c-2,1.2-3.6,3-4.7,5.3-1.2,2.3-1.7,5-1.7,8.1s.6,5.7,1.7,8c1.2,2.3,2.7,4.1,4.7,5.3,2,1.2,4.2,1.8,6.7,1.8Z"/>
    <path class="st0" d="M1343.5-483.3l23.3-36.5,5,10.5-15.2,26h-13.1ZM1344.4-549.6h13.5l43.3,66.3h-13.7l-43.1-66.3ZM1372.4-523.6l15.1-26h12.8l-22.4,35-5.6-9Z"/>
  </g>
  <g>
    <path d="M1064.8-592.9h32.9l-40.7-70.5h-11.6,0v8.5c0,3.8-1.7,7.4-4.7,9.8l-7.8,6.2-7.8-6.2c-3-2.4-4.7-6-4.7-9.8v-8.4h0c0,0,2-3.6,2-3.6l10.5-18.1,7.1,12.3h11.6l-18.7-32.3-22,38.2-2,3.5-21.2,36.7h11.6l12.2-21.2c1.3,4.1,3.9,7.8,7.4,10.6l6,4.8-6,4.8c-5.4,4.3-8.5,10.7-8.5,17.6v7.1h-24.8l8.3-14.4h-11.6l-14.1,24.4h87.3v-17.2c0-6.9-3.1-13.3-8.5-17.6l-6-4.8,6-4.8c3.5-2.8,6-6.5,7.4-10.6l26,45h-15.5v10ZM1040.7-619.8c3,2.4,4.7,6,4.7,9.8v7.1h-25v-7.1c0-3.8,1.7-7.4,4.7-9.8l7.8-6.2,7.8,6.2Z"/>
    <path d="M1110.7-615v-66.2h23.3c6.8,0,12.9,1.5,18.3,4.4,5.4,2.9,9.6,6.9,12.6,12,3,5,4.5,10.6,4.5,16.7s-1.5,11.7-4.5,16.7c-3,5-7.2,9-12.6,12-5.4,2.9-11.5,4.4-18.3,4.4h-23.3ZM1134.1-626.6c4.6,0,8.6-.9,12.1-2.7,3.4-1.8,6.1-4.3,7.9-7.6,1.8-3.2,2.7-6.9,2.7-11.2s-.9-7.9-2.7-11.2c-1.8-3.2-4.5-5.7-7.9-7.6-3.4-1.8-7.5-2.7-12.1-2.7h-11v42.9h11Z"/>
    <path d="M1198.9-615c-4.7,0-8.9-1.1-12.8-3.3-3.9-2.2-6.9-5.2-9.2-9.1-2.2-3.8-3.4-8.1-3.4-12.8s1.1-8.9,3.4-12.8c2.2-3.9,5.3-6.9,9.2-9.1,3.9-2.2,8.1-3.3,12.8-3.3s9.1,1.1,12.9,3.3c3.8,2.2,6.8,5.2,9,9.1,2.1,3.8,3.2,8.1,3.2,12.7v2.8h-38.7c.3,2.3,1.1,4.4,2.4,6.3,1.3,1.9,2.9,3.4,4.9,4.5,2,1.1,4,1.7,6.2,1.7s5.7-.6,7.8-1.9c2.1-1.3,3.6-2.8,4.6-4.6h12.1c-1.5,4.6-4.3,8.5-8.5,11.7-4.1,3.2-9.5,4.8-16,4.8ZM1211.8-645.1c-.3-1.9-1.1-3.6-2.2-5.2-1.2-1.5-2.7-2.8-4.5-3.7-1.8-.9-3.9-1.4-6.1-1.4s-4.2.5-6.1,1.4c-1.9.9-3.4,2.2-4.5,3.7-1.2,1.5-2,3.3-2.5,5.2h26Z"/>
    <path d="M1230.5-615v-66.2h11.4v56.1h10.9v10h-22.3Z"/>
    <path d="M1259.2-615v-37.9h-6.1v-10h6.1v-10.4h11.5v10.4h14.1v10h-14.1v27.9h14.6v10h-26.1Z"/>
    <path d="M1311-615c-4.1,0-7.8-1.1-11.2-3.2-3.4-2.1-6.1-5.1-8.1-8.9-2-3.8-3-8.2-3-13s1-9.3,3-13.1c2-3.8,4.7-6.8,8.1-8.9,3.4-2.1,7.2-3.2,11.2-3.2s5.1.4,7.2,1.3c2.1.9,3.9,1.9,5.3,3.2,1.4,1.2,2.4,2.3,3.1,3.4h.4v-6.6h11.5v47.9h-11.5v-6.6h-.4c-.6,1-1.7,2.1-3.1,3.4-1.4,1.2-3.2,2.3-5.3,3.2-2.1.9-4.5,1.3-7.2,1.3ZM1313.6-625c2.6,0,4.9-.6,6.9-1.8,2-1.2,3.6-3,4.8-5.3,1.2-2.3,1.7-5,1.7-8s-.6-5.8-1.7-8.1c-1.2-2.3-2.8-4.1-4.8-5.3-2-1.2-4.3-1.8-6.9-1.8s-4.7.6-6.7,1.8c-2,1.2-3.6,3-4.7,5.3-1.2,2.3-1.7,5-1.7,8.1s.6,5.7,1.7,8c1.2,2.3,2.7,4.1,4.7,5.3,2,1.2,4.2,1.8,6.7,1.8Z"/>
    <path d="M1343.5-615l23.3-36.5,5,10.5-15.2,26h-13.1ZM1344.4-681.3h13.5l43.3,66.3h-13.7l-43.1-66.3ZM1372.4-655.4l15.1-26h12.8l-22.4,35-5.6-9Z"/>
  </g>
  <path class="st1" d="M1064.8-727.7h32.9l-40.7-70.5h-11.6,0v8.5c0,3.8-1.7,7.4-4.7,9.8l-7.8,6.2-7.8-6.2c-3-2.4-4.7-6-4.7-9.8v-8.4h0c0,0,2-3.6,2-3.6l10.5-18.1,7.1,12.3h11.6l-18.7-32.3-22,38.2-2,3.5-21.2,36.7h11.6l12.2-21.2c1.3,4.1,3.9,7.8,7.4,10.6l6,4.8-6,4.8c-5.4,4.3-8.5,10.7-8.5,17.6v7.1h-24.8l8.3-14.4h-11.6l-14.1,24.4h87.3v-17.2c0-6.9-3.1-13.3-8.5-17.6l-6-4.8,6-4.8c3.5-2.8,6-6.5,7.4-10.6l26,45h-15.5v10ZM1040.7-754.6c3,2.4,4.7,6,4.7,9.8v7.1h-25v-7.1c0-3.8,1.7-7.4,4.7-9.8l7.8-6.2,7.8,6.2Z"/>
  <path class="st0" d="M326.9,379.4h111.2l-137.7-238.5h-39.2l.2.3v28.5c0,13-5.8,25-16,33.1l-26.4,21-26.4-21c-10.1-8.1-16-20.1-16-33.1v-28.5l.2-.3,6.8-11.7,35.4-61.3,24,41.5h39.2L219.1,0l-74.6,129.2-6.8,11.7-71.8,124.3h39.2l41.4-71.8c4.5,14,13.1,26.5,25,35.9l20.3,16.2-20.3,16.2c-18.3,14.5-28.8,36.3-28.8,59.6v24.2H58.7l28.1-48.7h-39.2L0,379.4h295.3v-58.1c0-23.4-10.5-45.1-28.7-59.6l-20.3-16.2,20.3-16.2c11.9-9.4,20.4-21.9,25-35.9l87.8,152.1h-52.5v33.9ZM245.5,288.2c10.1,8.1,16,20.1,16,33.1v24.2h-84.7v-24.2c0-13,5.8-25,16-33.1l26.4-21,26.4,21Z"/>
  <path d="M326.9-40.3h111.2l-137.7-238.5h-39.2l.2.3v28.5c0,13-5.8,25-16,33.1l-26.4,21-26.4-21c-10.1-8.1-16-20.1-16-33.1v-28.5l.2-.3,6.8-11.7,35.4-61.3,24,41.5h39.2l-63.1-109.3-74.6,129.2-6.8,11.7-71.8,124.3h39.2l41.4-71.8c4.5,14,13.1,26.5,25,35.9l20.3,16.2-20.3,16.2c-18.3,14.5-28.8,36.3-28.8,59.6v24.2H58.7l28.1-48.7h-39.2L0-40.3h295.3v-58.1c0-23.4-10.5-45.1-28.7-59.6l-20.3-16.2,20.3-16.2c11.9-9.4,20.4-21.9,25-35.9l87.8,152.1h-52.5v33.9ZM245.5-131.5c10.1,8.1,16,20.1,16,33.1v24.2h-84.7v-24.2c0-13,5.8-25,16-33.1l26.4-21,26.4,21Z"/>
  <path class="st1" d="M326.9-460.1h111.2l-137.7-238.5h-39.2l.2.3v28.5c0,13-5.8,25-16,33.1l-26.4,21-26.4-21c-10.1-8.1-16-20.1-16-33.1v-28.5l.2-.3,6.8-11.7,35.4-61.3,24,41.5h39.2l-63.1-109.3-74.6,129.2-6.8,11.7-71.8,124.3h39.2l41.4-71.8c4.5,14,13.1,26.5,25,35.9l20.3,16.2-20.3,16.2c-18.3,14.5-28.8,36.3-28.8,59.6v24.2H58.7l28.1-48.7h-39.2L0-460.1h295.3v-58.1c0-23.4-10.5-45.1-28.7-59.6l-20.3-16.2,20.3-16.2c11.9-9.4,20.4-21.9,25-35.9l87.8,152.1h-52.5v33.9ZM245.5-551.3c10.1,8.1,16,20.1,16,33.1v24.2h-84.7v-24.2c0-13,5.8-25,16-33.1l26.4-21,26.4,21Z"/>
  <path d="M1110.7-749.8v-66.2h23.3c6.8,0,12.9,1.5,18.3,4.4,5.4,2.9,9.6,6.9,12.6,12,3,5,4.5,10.6,4.5,16.7s-1.5,11.7-4.5,16.7c-3,5-7.2,9-12.6,12-5.4,2.9-11.5,4.4-18.3,4.4h-23.3ZM1134.1-761.4c4.6,0,8.6-.9,12.1-2.7,3.4-1.8,6.1-4.3,7.9-7.6,1.8-3.2,2.7-6.9,2.7-11.2s-.9-7.9-2.7-11.2c-1.8-3.2-4.5-5.7-7.9-7.6-3.4-1.8-7.5-2.7-12.1-2.7h-11v42.9h11Z"/>
  <path d="M1198.9-749.8c-4.7,0-8.9-1.1-12.8-3.3-3.9-2.2-6.9-5.2-9.2-9.1-2.2-3.8-3.4-8.1-3.4-12.8s1.1-8.9,3.4-12.8c2.2-3.9,5.3-6.9,9.2-9.1,3.9-2.2,8.1-3.3,12.8-3.3s9.1,1.1,12.9,3.3c3.8,2.2,6.8,5.2,9,9.1,2.1,3.8,3.2,8.1,3.2,12.7v2.8h-38.7c.3,2.3,1.1,4.4,2.4,6.3,1.3,1.9,2.9,3.4,4.9,4.5,2,1.1,4,1.7,6.2,1.7s5.7-.6,7.8-1.9c2.1-1.3,3.6-2.8,4.6-4.6h12.1c-1.5,4.6-4.3,8.5-8.5,11.7-4.1,3.2-9.5,4.8-16,4.8ZM1211.8-779.9c-.3-1.9-1.1-3.6-2.2-5.2-1.2-1.5-2.7-2.8-4.5-3.7-1.8-.9-3.9-1.4-6.1-1.4s-4.2.5-6.1,1.4c-1.9.9-3.4,2.2-4.5,3.7-1.2,1.5-2,3.3-2.5,5.2h26Z"/>
  <path d="M1230.5-749.8v-66.2h11.4v56.1h10.9v10h-22.3Z"/>
  <path d="M1259.2-749.8v-37.9h-6.1v-10h6.1v-10.4h11.5v10.4h14.1v10h-14.1v27.9h14.6v10h-26.1Z"/>
  <path d="M1311-749.8c-4.1,0-7.8-1.1-11.2-3.2-3.4-2.1-6.1-5.1-8.1-8.9-2-3.8-3-8.2-3-13s1-9.3,3-13.1c2-3.8,4.7-6.8,8.1-8.9,3.4-2.1,7.2-3.2,11.2-3.2s5.1.4,7.2,1.3c2.1.9,3.9,1.9,5.3,3.2,1.4,1.2,2.4,2.3,3.1,3.4h.4v-6.6h11.5v47.9h-11.5v-6.6h-.4c-.6,1-1.7,2.1-3.1,3.4-1.4,1.2-3.2,2.3-5.3,3.2-2.1.9-4.5,1.3-7.2,1.3ZM1313.6-759.8c2.6,0,4.9-.6,6.9-1.8,2-1.2,3.6-3,4.8-5.3,1.2-2.3,1.7-5,1.7-8s-.6-5.8-1.7-8.1c-1.2-2.3-2.8-4.1-4.8-5.3-2-1.2-4.3-1.8-6.9-1.8s-4.7.6-6.7,1.8c-2,1.2-3.6,3-4.7,5.3-1.2,2.3-1.7,5-1.7,8.1s.6,5.7,1.7,8c1.2,2.3,2.7,4.1,4.7,5.3,2,1.2,4.2,1.8,6.7,1.8Z"/>
  <path d="M1343.5-749.8l23.3-36.5,5,10.5-15.2,26h-13.1ZM1344.4-816.1h13.5l43.3,66.3h-13.7l-43.1-66.3ZM1372.4-790.2l15.1-26h12.8l-22.4,35-5.6-9Z"/>
</svg>